{"glyphs":{"0":{"ha":917,"x_min":0,"x_max":0,"o":"m 816 784 b 816 784 816 784 816 784 b 809 795 814 788 812 792 b 717 883 786 832 755 862 b 611 917 685 902 649 913 b 607 917 609 917 608 917 b 587 918 600 917 594 918 b 568 917 580 918 574 917 l 349 917 b 329 918 342 917 336 918 b 310 917 323 918 316 917 b 306 917 308 917 307 917 b 199 883 267 913 231 902 b 107 795 162 862 130 832 b 100 784 105 792 102 788 b 100 784 100 784 100 784 b 66 655 78 745 66 701 l 66 263 b 101 133 66 216 79 171 b 107 122 103 129 105 126 b 192 39 129 88 158 60 b 199 34 194 37 197 36 b 329 0 238 13 282 0 l 587 0 b 605 1 593 0 599 0 b 622 2 610 1 616 2 b 622 2 622 2 622 2 b 636 5 627 3 631 4 b 639 5 637 5 638 5 b 647 7 642 6 644 6 b 655 9 650 8 653 8 b 673 15 661 11 667 12 b 679 17 675 15 677 16 b 704 28 688 20 696 24 b 710 30 706 28 708 29 b 717 34 712 32 715 33 b 724 39 719 36 722 37 b 731 43 726 40 729 41 b 738 47 733 44 735 46 b 744 52 740 49 742 50 b 750 56 746 53 748 55 b 754 60 751 57 752 58 b 774 78 761 65 768 71 b 780 84 776 80 778 82 b 809 122 791 96 801 109 b 850 263 835 163 850 211 l 850 655 b 816 784 850 701 838 745 z m 329 133 b 199 263 258 133 199 191 l 199 655 b 313 784 199 721 249 776 b 316 784 314 784 315 784 l 343 784 b 346 784 344 784 345 784 l 571 784 b 574 784 572 784 573 784 l 601 784 b 603 784 601 784 602 784 b 717 655 667 776 717 721 l 717 263 b 587 133 717 191 659 133 z "},"1":{"ha":394,"x_min":0,"x_max":0,"o":"m 328 916 l 66 916 l 66 783 l 195 783 l 195 0 l 328 0 l 328 783 l 328 783 z "},"2":{"ha":949,"x_min":0,"x_max":0,"o":"m 330 132 b 199 262 258 132 199 191 b 330 392 199 334 258 392 l 618 392 b 807 472 692 392 759 423 b 847 525 823 488 836 505 b 882 655 869 563 882 607 b 847 785 882 702 869 746 b 618 917 802 864 716 917 l 66 917 l 66 785 l 618 785 b 749 655 690 785 749 726 b 618 525 749 583 690 525 l 330 525 b 101 392 232 525 146 471 b 66 262 79 354 66 310 b 101 132 66 215 79 171 b 330 0 146 53 232 0 l 882 0 l 882 132 z "},"3":{"ha":919,"x_min":0,"x_max":0,"o":"m 774 458 b 816 512 791 474 805 492 b 853 648 840 552 853 598 b 816 784 853 698 840 744 b 816 785 816 784 816 785 b 585 916 769 863 683 916 l 66 916 l 66 784 l 602 784 b 722 648 670 776 722 718 b 651 528 722 597 694 552 b 649 527 651 528 650 527 b 602 512 635 519 619 514 l 141 512 l 141 380 l 668 380 b 724 268 702 355 724 314 b 617 133 724 202 678 147 l 66 133 l 66 1 l 568 1 b 585 0 574 0 579 0 b 602 1 591 0 597 0 b 817 133 694 6 773 58 b 853 268 840 173 853 219 b 829 380 853 308 845 346 b 774 458 816 409 797 436 z "},"4":{"ha":871,"x_min":0,"x_max":0,"o":"m 671 917 l 671 525 l 199 525 l 199 917 l 66 917 l 66 392 l 671 392 l 671 0 l 804 0 l 804 917 z "},"5":{"ha":917,"x_min":0,"x_max":0,"o":"m 809 404 b 611 525 767 471 694 518 b 587 526 603 526 595 526 b 563 525 579 526 571 526 l 199 525 l 199 784 l 749 784 l 749 917 l 199 917 l 199 917 l 66 917 l 66 392 l 603 392 b 717 263 667 384 717 329 b 587 133 717 191 659 133 l 66 133 l 66 0 l 587 0 b 809 122 681 0 763 49 b 850 263 835 163 850 211 b 809 404 850 315 835 363 z "},"6":{"ha":917,"x_min":0,"x_max":0,"o":"m 809 404 b 611 525 767 471 694 518 b 587 526 603 526 595 526 b 563 525 579 526 571 526 l 353 525 b 329 526 345 526 337 526 b 312 526 324 526 318 526 b 306 525 310 526 308 525 b 199 492 267 522 231 510 l 199 655 b 313 784 199 721 249 776 b 316 784 314 784 315 784 l 343 784 b 346 784 344 784 345 784 l 559 784 b 558 784 559 784 558 784 l 847 784 l 847 917 l 349 917 b 329 918 342 917 336 918 b 310 917 323 918 316 917 l 310 917 b 306 917 308 917 307 917 b 199 883 267 913 231 902 b 107 795 162 862 130 832 b 100 784 105 792 102 788 l 100 784 b 100 784 100 784 100 784 b 66 655 78 745 66 701 l 66 263 b 68 228 66 251 67 240 b 73 203 70 220 71 211 b 77 187 74 197 76 192 b 93 148 82 173 87 160 b 101 133 95 143 98 138 l 101 133 b 107 122 103 129 105 126 b 192 39 128 88 158 60 b 199 34 194 37 197 36 b 329 0 238 13 282 0 b 587 0 329 0 587 0 b 587 0 587 0 587 0 b 809 122 681 0 763 49 b 850 263 835 163 850 211 b 809 404 850 315 835 363 z m 587 133 l 329 133 b 199 263 258 133 199 191 b 312 392 199 329 249 384 b 329 391 318 392 324 391 b 347 392 335 391 341 392 l 603 392 b 717 263 667 384 717 329 b 587 133 717 191 659 133 z "},"7":{"ha":822,"x_min":0,"x_max":0,"o":"m 623 917 l 623 916 l 66 916 l 66 783 l 623 783 l 623 0 l 756 0 l 756 917 z "},"8":{"ha":917,"x_min":0,"x_max":0,"o":"m 809 404 b 763 459 796 424 781 443 b 809 514 781 475 796 493 b 816 525 812 517 814 521 b 850 655 838 563 850 607 b 816 784 850 701 838 745 b 816 784 816 784 816 784 b 809 795 814 788 812 792 b 717 883 786 832 755 862 b 611 917 685 902 649 913 b 607 917 609 917 608 917 b 587 918 600 917 594 918 b 568 917 580 918 574 917 l 349 917 b 329 918 342 917 336 918 b 310 917 323 918 316 917 b 306 917 308 917 307 917 b 199 883 267 913 231 902 b 107 795 162 862 130 832 b 100 784 105 792 102 788 b 100 784 100 784 100 784 b 66 655 78 745 66 701 b 82 564 66 623 72 592 b 100 525 87 550 93 537 b 101 525 100 525 100 525 b 107 514 103 521 105 517 b 153 459 120 493 136 475 b 107 404 136 443 120 424 b 100 392 104 400 102 396 b 66 263 78 354 66 310 b 101 133 66 216 79 171 b 107 122 103 129 105 126 b 192 39 129 88 158 60 b 199 34 194 37 197 36 b 329 0 238 13 282 0 b 329 0 329 0 329 0 l 587 0 b 809 122 681 0 763 49 b 850 263 835 163 850 211 b 809 404 850 315 835 363 z m 343 784 b 346 784 344 784 345 784 l 571 784 b 574 784 572 784 573 784 l 601 784 b 603 784 601 784 602 784 b 717 655 667 776 717 721 b 604 526 717 588 668 534 b 587 526 598 526 593 526 b 563 525 579 526 571 526 l 353 525 b 329 526 345 526 337 526 b 312 526 324 526 318 526 b 199 655 249 534 199 589 b 313 784 199 721 249 776 b 316 784 314 784 315 784 z m 329 133 b 199 263 258 133 199 191 b 312 392 199 329 249 384 b 329 391 318 392 324 391 b 347 392 335 391 341 392 l 569 392 b 587 391 575 392 581 391 b 604 392 593 391 598 392 b 717 263 668 384 717 329 b 587 133 717 191 659 133 z "},"9":{"ha":917,"x_min":0,"x_max":0,"o":"m 850 655 b 816 785 850 702 838 746 b 809 795 814 788 812 792 b 724 879 788 829 759 858 b 717 883 722 881 719 882 b 587 918 679 905 634 918 b 586 918 587 918 586 918 l 331 918 b 329 918 330 918 330 918 b 107 795 236 918 154 869 b 66 655 81 755 66 706 b 107 514 66 603 81 555 b 306 393 150 447 222 400 b 329 391 313 392 321 391 b 353 393 337 391 345 392 l 563 393 b 587 391 571 392 579 391 b 604 392 593 391 598 392 b 717 263 668 384 717 329 b 603 134 717 197 667 142 b 601 134 602 134 601 134 b 600 134 600 134 600 134 l 574 134 b 574 134 574 134 574 134 b 571 134 573 134 572 134 l 358 134 b 358 134 358 134 358 134 b 358 134 358 134 358 134 l 86 134 l 86 1 l 568 1 b 587 0 574 0 581 0 b 606 1 593 0 600 0 l 607 1 b 611 1 608 1 609 1 b 717 34 649 4 685 16 b 809 122 755 56 786 86 b 816 134 812 126 814 130 b 816 134 816 134 816 134 b 850 263 838 172 850 216 l 850 526 z m 313 526 b 199 655 249 534 199 588 b 328 785 199 726 257 784 l 588 785 b 717 655 659 784 717 726 l 717 526 l 605 526 b 604 526 605 526 604 526 b 587 526 598 526 593 526 b 569 526 581 526 575 526 z "},"\u0000":{"ha":0,"x_min":0,"x_max":0,"o":""},"\n":{"ha":0,"x_min":0,"x_max":0,"o":""},"\r":{"ha":0,"x_min":0,"x_max":0,"o":""}," ":{"ha":607,"x_min":0,"x_max":0,"o":""},"!":{"ha":265,"x_min":0,"x_max":0,"o":"m 156 232 l 199 300 l 199 917 l 66 917 l 66 300 l 110 232 z m 199 0 l 199 144 l 66 144 l 66 0 z "},"\"":{"ha":428,"x_min":0,"x_max":0,"o":"m 66 854 l 108 793 l 157 793 l 199 854 l 199 1011 l 66 1011 z m 229 1011 l 229 854 l 271 793 l 320 793 l 362 854 l 362 1011 z "},"#":{"ha":967,"x_min":0,"x_max":0,"o":"m 901 552 l 901 685 l 710 685 l 710 923 l 577 923 l 577 685 l 390 685 l 390 923 l 257 923 l 257 685 l 66 685 l 66 552 l 257 552 l 257 365 l 66 365 l 66 232 l 257 232 l 257 0 l 390 0 l 390 232 l 577 232 l 577 0 l 710 0 l 710 232 l 901 232 l 901 365 l 710 365 l 710 552 z m 577 365 l 390 365 l 390 552 l 577 552 z "},"$":{"ha":949,"x_min":0,"x_max":0,"o":"m 618 604 l 545 604 l 565 866 l 622 866 b 749 742 690 864 745 810 l 882 742 b 847 866 881 787 868 829 b 847 866 847 866 847 866 b 624 999 803 944 720 997 b 618 999 622 999 620 999 b 611 999 615 999 613 999 l 575 999 l 580 1076 l 448 1086 l 441 999 l 330 999 b 101 866 232 999 146 945 b 66 735 79 827 66 783 b 101 604 66 687 79 643 b 141 551 112 585 125 567 b 330 471 189 502 256 471 l 402 471 l 383 209 l 331 209 b 199 333 261 209 203 264 l 66 333 b 101 209 67 288 80 246 b 331 76 147 130 232 76 l 373 76 l 368 10 l 501 0 l 506 76 l 618 76 b 847 209 716 76 802 130 b 882 340 869 248 882 292 b 847 471 882 388 869 432 b 618 604 802 551 716 604 z m 354 604 b 331 605 346 605 338 605 b 317 605 326 605 322 605 b 199 735 251 611 199 667 b 330 866 199 807 258 866 l 431 866 l 412 604 z m 618 209 l 516 209 l 535 471 l 618 471 b 749 340 690 471 749 412 b 618 209 749 268 690 209 z "},"%":{"ha":961,"x_min":0,"x_max":0,"o":"m 632 921 l 180 4 l 328 4 l 780 921 z m 362 773 b 214 921 362 855 296 921 b 66 773 132 921 66 855 b 214 625 66 691 132 625 b 362 773 296 625 362 691 z m 199 773 b 214 788 199 781 206 788 b 229 773 222 788 229 781 b 214 758 229 765 222 758 b 199 773 206 758 199 765 z m 748 296 b 600 148 666 296 600 229 b 748 0 600 66 666 0 b 896 148 829 0 896 66 b 748 296 896 229 829 296 z m 748 133 b 733 148 740 133 733 140 b 748 163 733 156 740 163 b 762 148 756 163 762 156 b 748 133 762 140 756 133 z "},"'":{"ha":349,"x_min":0,"x_max":0,"o":"m 158 925 l 66 690 l 158 654 l 208 687 l 282 877 z "},",":{"ha":308,"x_min":0,"x_max":0,"o":"m 113 269 l 66 81 l 92 12 l 139 0 l 195 49 l 242 237 z "},"-":{"ha":442,"x_min":0,"x_max":0,"o":"m 66 417 l 66 550 l 376 550 l 376 417 z m 372 545 l 71 545 l 71 421 l 372 421 l 372 545 z m 66 550 l 66 417 l 376 417 l 376 550 z "},".":{"ha":324,"x_min":0,"x_max":0,"o":"m 257 0 l 257 133 l 66 133 l 66 0 z "},"<":{"ha":478,"x_min":0,"x_max":0,"o":"m 412 792 l 166 575 l 66 486 l 166 397 l 412 179 l 412 357 l 267 486 l 412 615 z "},"=":{"ha":935,"x_min":0,"x_max":0,"o":"m 869 479 l 869 613 l 66 613 l 66 479 z m 869 238 l 869 371 l 66 371 l 66 238 z "},">":{"ha":478,"x_min":0,"x_max":0,"o":"m 312 575 l 66 792 l 66 615 l 211 486 l 66 357 l 66 179 l 312 397 l 412 486 z "},"?":{"ha":949,"x_min":0,"x_max":0,"o":"m 847 762 b 618 895 802 841 716 895 l 337 895 b 331 895 335 895 333 895 b 324 895 328 895 326 895 l 324 895 b 215 868 285 894 248 884 b 211 866 214 868 212 867 b 208 865 210 866 209 865 b 101 762 163 841 126 805 b 101 762 101 762 101 762 b 66 638 80 725 67 683 l 199 638 b 326 762 203 705 258 759 b 326 762 326 762 326 762 l 618 762 b 749 631 690 762 749 703 b 631 500 749 563 697 507 b 631 500 631 500 631 500 b 618 501 627 501 622 501 b 595 500 610 501 602 500 l 439 500 b 209 367 340 500 255 446 b 175 236 187 328 175 283 b 175 229 175 233 175 231 l 308 229 b 308 236 308 231 308 233 b 439 367 308 308 366 367 l 618 367 b 807 447 692 367 759 397 b 847 500 823 463 836 480 b 882 631 869 538 882 583 b 847 762 882 678 869 723 z m 249 0 b 340 91 299 0 340 41 b 249 182 340 141 299 182 b 158 91 199 182 158 141 b 249 0 158 41 199 0 z "},"A":{"ha":1189,"x_min":0,"x_max":0,"o":"m 97 0 l 273 0 l 565 529 l 478 688 z m 697 767 l 609 926 l 609 926 l 522 767 l 609 608 l 946 0 l 1122 0 z "},"B":{"ha":957,"x_min":0,"x_max":0,"o":"m 856 394 b 800 463 841 420 822 443 b 759 492 788 474 774 484 b 785 529 769 504 778 516 b 786 532 786 530 786 531 b 820 661 808 570 820 614 b 787 789 820 708 808 751 b 785 793 786 791 786 792 b 555 926 739 872 654 926 l 66 926 l 66 789 l 584 789 b 687 661 643 776 687 724 b 577 532 687 596 639 542 l 199 532 l 199 721 l 66 721 l 66 0 l 555 0 b 590 2 567 0 579 1 b 624 0 601 1 613 0 b 856 136 724 0 811 55 b 889 265 877 174 889 218 b 856 394 889 312 877 356 z m 652 136 l 199 136 l 199 394 l 649 394 b 756 265 710 382 756 329 b 652 136 756 202 711 149 z "},"C":{"ha":1040,"x_min":0,"x_max":0,"o":"m 529 133 b 206 395 370 133 238 246 b 199 463 202 417 199 440 b 206 528 199 485 201 507 b 529 793 236 679 370 793 b 833 592 665 793 783 710 l 974 592 b 529 926 918 785 740 926 b 71 528 296 926 102 753 b 66 463 68 507 66 485 b 71 395 66 440 68 417 b 529 0 104 172 296 0 b 969 320 735 0 909 134 l 826 320 b 529 133 773 209 660 133 z "},"D":{"ha":964,"x_min":0,"x_max":0,"o":"m 892 525 b 439 922 861 748 671 920 l 439 923 l 66 923 l 66 789 l 449 789 b 633 723 518 786 581 762 b 757 525 696 675 741 605 b 764 460 762 504 764 482 b 757 392 764 436 761 414 b 482 133 729 257 619 153 l 199 133 l 199 723 l 66 723 l 66 0 l 491 0 b 892 392 697 25 862 187 b 897 460 895 414 897 436 b 892 525 897 482 895 503 z "},"E":{"ha":965,"x_min":0,"x_max":0,"o":"m 215 428 l 808 428 l 808 561 l 215 561 l 215 723 l 82 723 l 82 0 l 897 0 l 897 133 l 215 133 z m 82 923 l 82 790 l 897 790 l 897 923 z "},"F":{"ha":949,"x_min":0,"x_max":0,"o":"m 199 723 l 66 723 l 66 0 l 199 0 l 199 428 l 793 428 l 793 561 l 199 561 z m 882 790 l 882 923 l 66 923 l 66 790 z "},"G":{"ha":1003,"x_min":0,"x_max":0,"o":"m 936 559 l 479 559 l 540 426 l 803 426 l 803 133 l 491 133 b 196 460 325 155 196 294 b 491 788 196 627 325 766 l 935 788 l 935 921 l 538 921 b 206 788 409 921 291 870 l 206 788 b 66 460 120 704 66 588 b 206 133 66 332 120 216 l 206 133 b 538 0 291 51 409 0 l 936 0 z "},"H":{"ha":940,"x_min":0,"x_max":0,"o":"m 740 921 l 740 559 l 199 559 l 199 921 l 66 921 l 66 0 l 199 0 l 199 426 l 740 426 l 740 0 l 873 0 l 873 921 z "},"I":{"ha":265,"x_min":0,"x_max":0,"o":"m 66 0 l 66 925 l 199 925 l 199 0 z m 195 920 l 71 920 l 71 4 l 195 4 l 195 920 z m 66 925 l 66 0 l 199 0 l 199 925 z "},"J":{"ha":833,"x_min":0,"x_max":0,"o":"m 634 926 l 634 265 b 370 133 574 185 478 133 b 199 181 308 133 249 151 l 199 388 l 66 388 l 66 114 b 199 33 105 80 150 52 b 370 0 252 12 310 0 b 634 82 468 0 559 30 b 767 224 688 120 733 168 l 767 926 z "},"K":{"ha":956,"x_min":0,"x_max":0,"o":"m 199 515 l 199 922 l 66 922 l 66 382 l 193 509 z m 429 461 l 890 922 l 702 922 l 309 529 l 199 420 l 199 421 l 66 288 l 66 0 l 199 0 l 199 232 l 335 367 l 702 0 l 890 0 z "},"L":{"ha":850,"x_min":0,"x_max":0,"o":"m 199 133 l 199 930 l 66 930 l 66 0 l 784 0 l 784 133 z "},"M":{"ha":956,"x_min":0,"x_max":0,"o":"m 66 0 l 199 0 l 199 511 l 66 644 z m 481 512 l 66 926 l 66 738 l 199 605 l 199 605 l 481 323 l 531 374 l 575 417 l 756 599 l 756 0 l 889 0 l 889 920 z "},"N":{"ha":865,"x_min":0,"x_max":0,"o":"m 66 0 l 199 0 l 199 509 l 66 642 z m 665 923 l 665 325 l 66 925 l 66 737 l 199 604 l 199 604 l 665 137 l 799 4 l 799 923 z "},"O":{"ha":1056,"x_min":0,"x_max":0,"o":"m 528 790 b 857 462 709 790 857 643 b 528 133 857 281 709 133 b 199 462 347 133 199 281 b 528 790 199 643 347 790 z m 66 462 b 528 0 66 207 273 0 b 990 462 783 0 990 207 b 528 924 990 717 783 924 b 66 462 273 924 66 717 z "},"P":{"ha":874,"x_min":0,"x_max":0,"o":"m 807 677 b 575 922 807 808 704 915 l 575 922 l 66 922 l 66 0 l 199 0 l 199 430 l 583 430 l 581 432 b 807 677 707 441 807 547 z m 561 564 l 199 564 l 199 789 l 552 789 b 553 789 552 789 553 789 b 561 789 556 789 559 789 b 674 677 623 789 674 739 b 561 564 674 614 623 564 z "},"Q":{"ha":1056,"x_min":0,"x_max":0,"o":"m 876 159 b 989 461 946 240 989 346 b 527 922 989 716 782 922 b 66 461 273 922 66 716 b 527 0 66 206 273 0 b 530 0 528 0 529 0 l 530 0 l 754 0 l 757 0 l 793 0 l 942 0 l 829 113 b 876 159 846 127 862 143 z m 678 170 b 610 144 657 159 634 150 b 527 133 584 137 556 133 b 199 461 346 133 199 280 b 527 789 199 642 346 789 b 856 461 708 789 856 642 b 782 254 856 383 828 311 b 735 207 768 237 752 221 b 678 170 717 193 698 180 z "},"R":{"ha":992,"x_min":0,"x_max":0,"o":"m 634 476 l 618 503 b 621 504 619 503 620 504 b 622 505 621 505 621 505 b 629 510 624 507 627 508 b 629 510 629 510 629 510 b 637 515 632 512 634 513 b 652 527 642 519 647 523 b 657 530 654 528 655 529 b 662 535 658 531 660 533 b 670 541 665 537 668 539 b 671 542 671 542 671 542 b 677 547 673 544 675 546 b 695 564 683 553 689 558 b 822 792 757 625 802 704 b 833 893 829 825 833 858 b 831 925 833 904 832 914 l 66 925 l 66 0 l 199 0 l 199 431 l 371 431 b 380 431 374 431 377 431 b 385 431 382 431 383 431 b 393 431 388 431 390 431 b 395 432 394 431 394 431 b 406 432 398 432 402 432 b 406 432 406 432 406 432 b 417 433 410 432 414 433 b 427 434 421 434 424 434 b 431 435 428 434 430 435 b 440 436 434 435 437 436 b 443 437 441 436 442 436 b 450 438 446 437 448 437 b 474 443 458 439 466 441 b 484 445 478 443 481 444 b 487 446 485 445 486 445 b 494 448 489 446 492 447 b 496 448 494 448 495 448 l 503 436 l 769 0 l 925 0 z m 501 591 b 371 564 461 573 416 564 l 199 564 l 199 792 l 684 792 b 602 659 668 742 640 696 b 501 591 572 630 538 607 z "},"S":{"ha":949,"x_min":0,"x_max":0,"o":"m 618 528 l 354 528 b 331 529 346 529 338 529 b 317 529 326 529 322 529 b 199 659 251 535 199 591 b 330 790 199 731 258 790 l 622 790 b 749 666 690 787 745 733 l 882 666 b 847 790 881 711 868 753 b 847 790 847 790 847 790 b 624 923 803 868 720 921 b 618 923 622 923 620 923 b 611 923 615 923 613 923 l 330 923 b 101 790 232 923 146 869 b 66 659 79 751 66 707 b 101 528 66 611 79 567 b 141 475 112 509 125 491 b 330 395 189 426 256 395 l 618 395 b 749 264 690 395 749 336 b 618 133 749 192 690 133 l 331 133 b 199 257 261 133 203 188 l 66 257 b 101 133 67 212 80 170 b 331 0 147 54 232 0 l 618 0 b 847 133 716 0 802 54 b 882 264 869 172 882 216 b 847 395 882 312 869 356 b 618 528 802 474 716 528 z "},"T":{"ha":956,"x_min":0,"x_max":0,"o":"m 537 0 l 537 723 l 404 723 l 404 0 z m 889 789 l 889 922 l 66 922 l 66 789 z "},"U":{"ha":956,"x_min":0,"x_max":0,"o":"m 756 923 l 756 414 b 487 133 756 263 638 138 b 478 133 484 133 481 133 b 467 133 474 133 471 133 b 199 414 317 138 199 263 l 199 923 l 66 923 l 66 337 b 139 148 66 267 91 199 b 199 93 157 128 177 110 b 478 0 277 35 373 0 b 756 93 582 0 678 35 b 816 147 777 109 798 128 b 889 336 863 198 889 266 l 889 923 z "},"V":{"ha":1157,"x_min":0,"x_max":0,"o":"m 242 926 l 66 926 l 447 238 l 535 397 z m 915 926 l 579 318 l 491 159 l 579 0 l 579 0 l 667 159 l 1091 926 z "},"W":{"ha":1482,"x_min":0,"x_max":0,"o":"m 1270 911 l 1006 324 l 814 750 l 741 911 l 741 911 l 668 750 l 477 324 l 212 911 l 66 911 l 404 162 l 477 0 l 550 162 l 741 588 l 933 162 l 1006 0 l 1079 162 l 1416 911 z "},"X":{"ha":1001,"x_min":0,"x_max":0,"o":"m 583 478 l 595 494 l 911 923 l 746 923 l 513 606 l 501 590 l 489 606 l 255 923 l 90 923 l 406 494 l 418 478 l 418 478 l 500 365 l 501 366 l 770 0 l 935 0 z m 66 0 l 231 0 l 459 309 l 376 421 z "},"Y":{"ha":975,"x_min":0,"x_max":0,"o":"m 744 925 l 487 575 l 487 575 l 231 925 l 66 925 l 395 476 l 405 463 l 405 462 l 418 445 l 421 440 l 421 0 l 554 0 l 554 441 l 557 445 l 570 462 l 570 463 l 580 476 l 909 925 z "},"Z":{"ha":956,"x_min":0,"x_max":0,"o":"m 66 20 l 66 0 l 889 0 l 889 133 l 148 133 z m 197 200 l 362 200 l 792 789 l 889 922 l 66 922 l 66 789 l 627 789 z "},"[":{"ha":426,"x_min":0,"x_max":0,"o":"m 361 784 l 361 917 l 66 917 l 66 0 l 361 0 l 361 133 l 199 133 l 199 784 z "},"]":{"ha":426,"x_min":0,"x_max":0,"o":"m 66 917 l 66 784 l 228 784 l 228 133 l 66 133 l 66 0 l 361 0 l 361 917 z "},"^":{"ha":471,"x_min":0,"x_max":0,"o":"m 186 830 l 66 694 l 164 694 l 235 775 l 306 694 l 404 694 l 284 830 l 235 885 z "},"|":{"ha":265,"x_min":0,"x_max":0,"o":"m 66 0 l 199 0 l 199 916 l 66 916 z m 195 911 l 71 911 l 71 4 l 195 4 l 195 911 z m 199 916 l 199 0 l 66 0 l 66 916 z "}," ":{"ha":607,"x_min":0,"x_max":0,"o":""},"­":{"ha":0,"x_min":0,"x_max":0,"o":""}}}
